<?xml version="1.0" standalone="no"?>
<!DOCTYPE svg PUBLIC "-//W3C//DTD SVG 20010904//EN"
 "http://www.w3.org/TR/2001/REC-SVG-20010904/DTD/svg10.dtd">
<svg version="1.0" xmlns="http://www.w3.org/2000/svg"
 width="1024.000000pt" height="1024.000000pt" viewBox="0 0 1024.000000 1024.000000"
 preserveAspectRatio="xMidYMid meet">
<metadata>
Created by potrace 1.14, written by Peter Selinger 2001-2017
</metadata>
<g transform="translate(0.000000,1024.000000) scale(0.100000,-0.100000)"
fill="#000000" stroke="none">
<path d="M6480 7216 c0 -2 8 -10 18 -17 15 -13 16 -12 3 4 -13 16 -21 21 -21
13z"/>
<path d="M4924 7025 c-336 -62 -600 -208 -817 -453 -141 -160 -247 -372 -294
-591 -31 -143 -36 -378 -10 -501 39 -189 144 -412 266 -565 309 -387 856 -591
1336 -498 182 35 408 126 537 216 37 26 71 47 76 47 5 0 23 18 41 40 17 22 38
40 45 40 7 0 24 20 37 45 14 26 29 43 37 40 7 -2 24 19 41 54 17 33 38 61 49
63 11 3 21 18 25 37 4 17 22 47 41 66 21 20 40 53 46 77 7 24 22 59 35 78 26
40 55 143 101 360 25 123 15 314 -26 476 -49 192 -178 410 -340 578 -183 189
-455 332 -742 390 -95 20 -380 20 -484 1z m-333 -979 c84 -30 148 -105 168
-199 22 -95 -21 -177 -93 -177 l-32 0 4 88 c4 86 4 87 -27 116 -39 38 -111 46
-166 20 -47 -22 -68 -67 -69 -152 l-1 -63 -45 3 c-38 3 -47 7 -64 38 -46 78
-3 226 82 282 81 54 170 70 243 44z m1297 -1 c88 -26 174 -137 189 -240 8 -63
-10 -100 -58 -119 -72 -29 -77 -26 -72 57 4 60 1 77 -17 105 -38 61 -130 80
-191 39 -46 -31 -69 -80 -69 -149 l0 -58 -33 0 c-38 0 -59 19 -76 69 -18 55
-13 117 14 171 28 56 68 90 140 119 61 24 105 26 173 6z m-461 -616 c27 -51
11 -109 -44 -161 -111 -106 -373 -93 -478 23 -45 50 -48 102 -9 148 39 46 75
42 136 -15 l49 -46 79 4 c77 3 80 4 122 44 24 23 50 44 58 46 24 8 74 -16 87
-43z"/>
<path d="M7115 6260 c22 -102 35 -204 29 -223 -11 -32 -11 -87 1 -87 6 0 3 -5
-5 -10 -9 -6 -10 -10 -3 -10 21 0 20 -35 -2 -47 -20 -12 -20 -13 0 -11 11 1
29 0 40 -1 17 -1 17 -3 5 -11 -8 -5 -24 -8 -35 -6 -11 2 -14 1 -6 -1 12 -4 12
-6 0 -15 -10 -7 -8 -8 9 -3 18 5 22 2 22 -14 0 -34 17 -24 24 14 7 35 -53 380
-75 427 -9 22 -9 22 -4 -2z"/>
<path d="M3035 6255 c-161 -49 -276 -168 -333 -345 -34 -106 -42 -174 -42
-360 0 -145 3 -188 20 -248 29 -103 83 -206 142 -269 52 -55 159 -117 222
-128 32 -6 33 -9 55 -98 40 -170 132 -360 249 -522 127 -175 144 -196 209
-271 167 -192 381 -354 713 -541 159 -90 242 -145 335 -221 240 -198 367 -338
437 -480 43 -89 57 -102 113 -102 49 0 76 30 145 161 50 95 66 116 200 249
170 170 225 213 420 328 153 90 378 231 470 294 143 99 352 308 497 499 144
188 290 470 331 638 l17 68 80 31 c141 56 230 145 288 288 44 110 51 159 52
354 0 164 -3 194 -23 264 -55 189 -160 329 -285 379 -57 23 -117 35 -117 24 0
-2 11 -37 25 -78 38 -110 61 -418 35 -459 -5 -8 -10 -10 -10 -5 -1 6 -5 0 -10
-13 -11 -26 -42 -42 -48 -24 -2 7 -7 10 -11 8 -4 -3 -5 11 -3 29 4 30 2 33
-17 28 -12 -3 -21 -1 -21 5 0 6 10 13 23 15 16 3 13 5 -10 6 -27 1 -33 -3 -33
-20 0 -11 -4 -18 -8 -15 -4 2 -14 1 -22 -4 -11 -7 -18 -3 -27 13 -11 21 -12
21 -19 3 -4 -10 -2 -21 5 -25 8 -5 5 -13 -9 -26 -19 -18 -20 -18 -20 3 0 12
-5 22 -10 22 -6 0 -10 -6 -8 -12 3 -15 -3 -18 -36 -18 -20 0 -23 4 -20 30 3
21 -1 30 -11 30 -17 0 -20 -16 -5 -25 13 -8 -14 -36 -32 -33 -7 2 -12 -3 -11
-9 2 -7 -2 -13 -7 -13 -7 0 -8 13 -4 35 3 20 2 35 -2 33 -5 -1 -23 6 -41 15
-18 9 -41 17 -52 17 -11 0 -23 9 -27 22 l-6 21 -15 -24 c-13 -23 -14 -22 -11
23 2 26 0 44 -3 40 -4 -4 -9 -65 -12 -137 -11 -283 -86 -536 -222 -746 -121
-189 -274 -357 -400 -442 -33 -22 -82 -56 -110 -74 -157 -107 -451 -208 -681
-234 -122 -14 -293 -6 -441 21 -437 79 -824 328 -1063 684 -94 141 -182 354
-214 523 -23 120 -24 121 -25 71 0 -26 4 -59 9 -73 6 -15 11 -51 11 -81 1 -29
6 -51 10 -48 13 8 11 -10 -2 -23 -8 -8 -5 -17 10 -32 12 -12 21 -25 21 -31 0
-13 -57 -70 -70 -70 -5 0 -10 -9 -10 -20 0 -13 -7 -20 -20 -20 -11 0 -20 6
-20 14 0 9 -7 12 -20 9 -18 -5 -18 -6 -2 -32 9 -14 20 -29 25 -32 4 -3 -6 -6
-23 -6 -20 0 -26 3 -18 9 10 6 8 8 -5 8 -9 0 -26 -6 -38 -12 -17 -11 -22 -10
-35 6 -14 19 -14 19 -14 -2 0 -15 -6 -22 -20 -22 -11 0 -20 7 -20 15 0 27 -20
15 -21 -12 0 -16 -3 -22 -6 -15 -2 6 -14 11 -26 11 -16 -1 -17 -3 -5 -6 9 -2
19 -11 22 -19 4 -12 1 -14 -14 -9 -15 5 -18 3 -14 -9 3 -9 3 -28 -1 -44 -7
-25 -8 -25 -15 -7 -7 15 -9 16 -9 4 -1 -9 11 -37 25 -62 14 -25 24 -52 22 -59
-1 -7 6 -35 17 -62 13 -35 20 -44 25 -32 5 15 8 15 25 -5 17 -19 18 -22 3 -16
-16 6 -16 2 2 -45 25 -66 12 -52 -40 42 -72 132 -127 271 -150 380 -12 58 -30
134 -41 171 -27 95 -61 300 -54 329 4 14 3 22 -1 18 -4 -5 -13 1 -21 12 -9 12
-26 20 -44 20 l-30 0 6 113 c10 186 23 287 51 396 14 56 24 104 22 106 -2 1
-21 -3 -43 -10z m3845 -546 c0 -5 5 -7 12 -3 6 4 8 3 5 -3 -8 -12 -57 -5 -57
8 0 5 9 9 20 9 11 0 20 -5 20 -11z m14 -65 c3 -8 2 -12 -4 -9 -6 3 -10 10 -10
16 0 14 7 11 14 -7z m263 -406 c-3 -8 -6 -5 -6 6 -1 11 2 17 5 13 3 -3 4 -12
1 -19z m-10 -40 c-3 -8 -6 -5 -6 6 -1 11 2 17 5 13 3 -3 4 -12 1 -19z m-3688
-664 c12 -19 16 -32 11 -29 -11 7 -43 65 -36 65 2 0 13 -16 25 -36z m135 -174
c38 -46 65 -80 59 -77 -12 7 -143 163 -158 187 -14 22 19 -15 99 -110z"/>
<path d="M3591 6014 c0 -11 3 -14 6 -6 3 7 2 16 -1 19 -3 4 -6 -2 -5 -13z"/>
<path d="M3581 5954 c0 -11 3 -14 6 -6 3 7 2 16 -1 19 -3 4 -6 -2 -5 -13z"/>
<path d="M6732 5890 c0 -14 2 -19 5 -12 2 6 2 18 0 25 -3 6 -5 1 -5 -13z"/>
<path d="M3573 5840 c0 -25 2 -35 4 -22 2 12 2 32 0 45 -2 12 -4 2 -4 -23z"/>
<path d="M7111 5774 c0 -11 3 -14 6 -6 3 7 2 16 -1 19 -3 4 -6 -2 -5 -13z"/>
<path d="M3563 5720 c0 -30 2 -43 4 -27 2 15 2 39 0 55 -2 15 -4 2 -4 -28z"/>
<path d="M3573 5600 c0 -25 2 -35 4 -22 2 12 2 32 0 45 -2 12 -4 2 -4 -23z"/>
<path d="M3365 5070 c3 -5 8 -10 11 -10 2 0 4 5 4 10 0 6 -5 10 -11 10 -5 0
-7 -4 -4 -10z"/>
<path d="M3288 5063 c6 -2 18 -2 25 0 6 3 1 5 -13 5 -14 0 -19 -2 -12 -5z"/>
<path d="M3225 5040 c-3 -5 -1 -10 4 -10 6 0 11 5 11 10 0 6 -2 10 -4 10 -3 0
-8 -4 -11 -10z"/>
<path d="M5001 2148 c-145 -4 -269 -9 -275 -12 -6 -2 129 -3 299 -1 171 2 302
1 293 -2 -11 -2 -18 -14 -18 -29 0 -20 5 -24 30 -24 23 0 30 -4 30 -20 0 -11
-5 -20 -11 -20 -8 0 -8 -4 0 -14 7 -8 21 -12 31 -9 11 3 20 0 20 -6 0 -9 29
-17 30 -8 12 77 12 77 -9 77 -25 0 -29 29 -3 31 9 1 4 5 -13 8 -16 4 92 6 242
5 149 -1 281 -5 292 -9 12 -4 21 -2 21 4 0 7 -25 11 -63 11 -35 0 -133 4 -218
10 -238 14 -391 16 -678 8z m522 -15 c-7 -2 -21 -2 -30 0 -10 3 -4 5 12 5 17
0 24 -2 18 -5z"/>
<path d="M4623 2123 c9 -2 23 -2 30 0 6 3 -1 5 -18 5 -16 0 -22 -2 -12 -5z"/>
<path d="M5118 2123 c7 -3 16 -2 19 1 4 3 -2 6 -13 5 -11 0 -14 -3 -6 -6z"/>
<path d="M5200 2112 c0 -4 9 -8 20 -8 11 0 20 4 20 8 0 4 -9 8 -20 8 -11 0
-20 -4 -20 -8z"/>
<path d="M5205 2091 c-8 -15 3 -31 21 -31 9 0 14 7 12 17 -4 20 -24 28 -33 14z"/>
<path d="M5260 2090 c0 -5 5 -10 10 -10 6 0 10 5 10 10 0 6 -4 10 -10 10 -5 0
-10 -4 -10 -10z"/>
<path d="M4997 2083 c-12 -11 -8 -23 8 -23 17 0 20 -11 5 -26 -5 -5 -6 -27 -2
-49 l7 -40 6 40 6 40 2 -39 c1 -31 4 -36 15 -27 7 6 22 8 31 4 13 -4 16 -3 11
5 -4 7 -16 12 -27 12 -18 0 -20 6 -17 37 2 22 -2 38 -10 41 -6 2 -12 10 -12
18 0 15 -12 19 -23 7z"/>
<path d="M5450 2065 c0 -8 5 -15 10 -15 6 0 10 7 10 15 0 8 -4 15 -10 15 -5 0
-10 -7 -10 -15z"/>
<path d="M5563 2067 c4 -10 7 -23 7 -28 0 -5 5 -9 10 -9 15 0 12 20 -7 38 -16
16 -16 16 -10 -1z"/>
<path d="M5230 2040 c0 -5 7 -10 15 -10 8 0 15 -4 15 -10 0 -5 7 -10 15 -10 8
0 15 5 15 10 0 6 -7 10 -15 10 -8 0 -15 5 -15 10 0 6 -7 10 -15 10 -8 0 -15
-4 -15 -10z"/>
<path d="M5125 2020 c11 -5 27 -9 35 -9 9 0 8 4 -5 9 -11 5 -27 9 -35 9 -9 0
-8 -4 5 -9z"/>
<path d="M5122 1990 c0 -14 2 -19 5 -12 2 6 2 18 0 25 -3 6 -5 1 -5 -13z"/>
<path d="M5218 2003 c-11 -3 -18 -14 -18 -28 0 -21 4 -24 37 -22 40 3 52 19
33 42 -13 15 -21 16 -52 8z"/>
</g>
</svg>
